<svg width="200" height="17" fill="none" xmlns="http://www.w3.org/2000/svg"><path d="M34.916 2.957c.438-.444 1.023-.74 1.607-.74h.292c.585 0 1.169.148 1.607.444.439.296.73.739.73 1.182 0 .444.147.592.439.74.292.147.438.295.73.295.293 0 .585-.148.73-.295.293-.148.293-.444.293-.887v.147c0-.59-.146-1.034-.438-1.478-.292-.443-.585-.887-1.023-1.182-.438-.296-.876-.592-1.46-.74C38.13.148 37.545 0 36.814 0h-.292c-.584 0-1.315.148-1.753.296-.584.295-1.023.591-1.461 1.034-.438.444-.73.887-1.023 1.479-.292.591-.438 1.182-.438 1.774v7.687c0 .59.146 1.33.438 1.774.292.59.585 1.034 1.023 1.478.438.443.877.739 1.46 1.034.585.296 1.17.296 1.9.296h.292c.585 0 1.315-.148 1.753-.443.585-.296 1.023-.592 1.461-1.035.439-.444.73-.887 1.023-1.478a4.132 4.132 0 0 0 .438-1.922V8.722c0-.296-.146-.592-.292-.887-.292-.296-.438-.296-.877-.296H37.4c-.439 0-.73.148-.877.296-.146.295-.292.443-.292.739s.146.591.292.739c.146.296.438.296.877.296h1.899v2.513c0 .295 0 .591-.146.887-.146.295-.292.591-.585.739-.146.148-.438.443-.73.591-.292.148-.584.148-.877.148h-.292c-.584 0-1.169-.296-1.607-.74-.438-.443-.73-1.034-.73-1.625v-7.54c-.146-.59.146-1.182.584-1.625ZM60.19 7.835c.292-.444.438-.887.584-1.33.146-.444.146-1.035.146-1.479v-.148c0-.591-.146-1.33-.438-1.774-.292-.591-.584-1.034-1.023-1.478-.438-.443-.876-.739-1.46-1.035-.585-.295-1.17-.443-1.754-.443h-3.944a1.11 1.11 0 0 0-.73.295c-.293.296-.293.444-.293.74v14.634c0 .444.146.74.293.887.292.148.438.296.876.296.292 0 .584-.148.73-.296.293-.148.293-.443.293-.887v-6.06h1.899l3.068 6.652c.146.295.292.443.438.443.146.148.292.148.584.148.439 0 .73-.148.877-.296.146-.148.292-.443.292-.887 0-.147 0-.295-.146-.443l-2.776-5.765c.73-.148 1.17-.444 1.607-.74.293-.295.585-.59.877-1.034Zm-1.461-2.809c0 .591-.146 1.183-.584 1.626-.439.444-1.023.74-1.607.74h-2.922V2.512h2.776c.584 0 1.168.296 1.607.74.438.443.73 1.034.73 1.773ZM78.744 1.33c-.439-.443-.877-.739-1.461-1.034C76.698.148 76.114 0 75.383 0h-.146c-.584 0-1.314.148-1.899.296-.584.295-1.022.591-1.46 1.034-.439.444-.731.887-1.023 1.479-.293.591-.439 1.182-.439 1.774v7.687c0 .59.147 1.33.439 1.774.292.59.584 1.034 1.022 1.478.439.443.877.739 1.461 1.034.585.296 1.169.296 1.753.296h.293c.584 0 1.314-.148 1.753-.296.584-.295 1.022-.59 1.46-1.034.439-.444.731-.887 1.023-1.479.292-.59.438-1.182.438-1.773V4.583c0-.592-.146-1.183-.438-1.774-.146-.592-.438-1.035-.876-1.479Zm-.877 11.087c0 .74-.292 1.183-.73 1.627-.439.443-1.023.739-1.607.739h-.293c-.584 0-1.168-.296-1.607-.74-.438-.443-.73-1.034-.73-1.626V4.583c0-.592.292-1.183.73-1.626.439-.444 1.023-.74 1.607-.74h.293c.584 0 1.168.148 1.607.592.438.443.73 1.034.73 1.626v7.982ZM95.398 15.965l3.506-14.487v-.295c0-.296-.146-.592-.292-.74C98.32.148 98.028 0 97.736 0c-.293 0-.439 0-.585.148-.146.148-.292.295-.438.739l-2.63 11.087L91.453.887c-.145-.296-.292-.591-.438-.74C90.87 0 90.577 0 90.431 0c-.292 0-.584.148-.877.296-.292.295-.438.591-.438.887v.295l3.506 14.635c.147.296.293.591.439.74.292.147.584.295.876.295.292 0 .585-.148.877-.296.292-.296.438-.443.584-.887ZM109.569 16.852h7.305c.438 0 .73-.148.876-.296.146-.295.292-.443.292-.739 0-.295-.146-.59-.292-.739-.146-.295-.438-.295-.876-.295h-6.136V9.46h4.236c.439 0 .731-.148.877-.296.146-.295.292-.443.292-.739s-.146-.591-.292-.739c-.146-.296-.438-.296-.877-.296h-4.236V2.513h6.136c.438 0 .73-.148.876-.296.146-.295.292-.443.292-.739 0-.295-.146-.591-.292-.739-.146-.296-.438-.296-.876-.296h-7.305c-.292 0-.584.148-.73.296-.293.296-.293.444-.293.74v14.486c0 .296.146.591.293.74.146 0 .438.147.73.147ZM138.349 16.704c.292.148.438.296.731.296.292 0 .584-.148.73-.296.292-.148.292-.443.292-.887V1.183c0-.296-.146-.592-.292-.74 0-.295-.292-.443-.584-.443h-.292c-.293 0-.585 0-.731.148a2.038 2.038 0 0 0-.438.591l-3.506 7.983-3.507-7.983C130.46.296 130.168 0 129.584 0h-.293c-.292 0-.584.148-.73.296-.292.295-.292.443-.292.739V15.67c0 .443.146.739.292.886.292.148.438.296.73.296.293 0 .585-.148.731-.296.292-.147.292-.443.292-.886V5.322l2.63 6.06c.146.296.292.444.438.592.146.148.438.148.73.148.293 0 .439 0 .731-.148s.438-.296.438-.591l2.63-6.061V15.67c.146.59.292.886.438 1.034ZM156.465.148C156.172 0 155.88 0 155.588 0c-.292 0-.584.148-.73.296-.293.147-.439.443-.585.739l-4.529 14.635v.443c0 .296.146.591.293.74.146.147.438.295.876.295.292 0 .438 0 .731-.148.292-.148.438-.296.438-.591l1.022-3.252h5.26l1.022 3.252c.146.295.293.443.439.591.146.148.438.148.584.148.292 0 .584-.148.877-.296.146-.148.292-.443.292-.739v-.296l-4.529-14.634c-.146-.592-.292-.887-.584-1.035Zm-2.776 10.495 1.899-6.356 1.899 6.356h-3.798ZM177.648.443c-.584-.295-1.169-.295-1.753-.295h-3.799c-.292 0-.584.148-.73.295-.292.296-.292.444-.292.74V15.67c0 .295.146.59.292.739.292.295.438.295.73.295h3.799c.584 0 1.315-.148 1.753-.295.584-.296 1.023-.592 1.461-.887.438-.296.73-.887 1.022-1.479a4.122 4.122 0 0 0 .439-1.921V4.878c0-.739-.146-1.33-.439-1.921-.292-.592-.584-1.035-1.022-1.479-.292-.443-.877-.739-1.461-1.035Zm.584 11.679c0 .295 0 .591-.146.887-.146.295-.292.591-.584.739-.146.148-.438.443-.731.591-.292.148-.584.148-.876.148h-2.63V2.513h2.63c.292 0 .584 0 .876.148.293.148.585.296.731.591.146.148.438.444.584.74.146.295.146.59.146.886v7.244ZM198.831 2.513c.439 0 .731-.148.877-.296.146-.295.292-.443.292-.739 0-.295-.146-.591-.292-.739-.146-.296-.438-.296-.877-.296h-7.304a1.11 1.11 0 0 0-.731.296c-.292.296-.292.444-.292.74v14.486c0 .296.146.591.292.74.292.295.439.295.731.295h7.304c.439 0 .731-.148.877-.296.146-.295.292-.443.292-.739 0-.295-.146-.591-.292-.739-.146-.296-.438-.296-.877-.296h-6.136V9.46h4.237c.438 0 .731-.147.877-.295.146-.295.292-.443.292-.739s-.146-.591-.292-.739c-.146-.296-.439-.296-.877-.296h-4.237V2.513h6.136ZM11.541 16.556v-.147c0 .148-1.607-3.992-2.191-4.583-1.315-1.33-2.776-1.183-3.798-1.183H.583c-.292 0-.584.148-.584.444v.148s1.607 4.139 2.191 4.582C3.361 17 4.383 17 5.99 17h5.113c.292 0 .438-.148.438-.444ZM20.015 11.383c0-3.105-3.214-9.905-3.653-11.087 0-.148-.146-.296-.438-.296-.146 0-.438.148-.438.296-2.192 5.174-3.799 9.017-3.799 9.017-.146.444-.292.887-.146 1.33.146.444 1.023 2.218 1.607 3.696C14.025 16.41 14.171 17 16.07 17c2.338 0 3.945-2.07 3.945-5.617Z" fill="#272524"/></svg>